<?xml version="1.0" encoding="UTF-8" standalone="no"?>
<!-- Generator: Adobe Illustrator 13.0.1, SVG Export Plug-In . SVG Version: 6.00 Build 14948)  -->

<svg
   xmlns:dc="http://purl.org/dc/elements/1.1/"
   xmlns:cc="http://creativecommons.org/ns#"
   xmlns:rdf="http://www.w3.org/1999/02/22-rdf-syntax-ns#"
   xmlns:svg="http://www.w3.org/2000/svg"
   xmlns="http://www.w3.org/2000/svg"
   xmlns:sodipodi="http://sodipodi.sourceforge.net/DTD/sodipodi-0.dtd"
   xmlns:inkscape="http://www.inkscape.org/namespaces/inkscape"
   version="1.1"
   id="图层_2"
   x="0px"
   y="0px"
   width="779.52753"
   height="354.33069"
   viewBox="0 0 779.52755 354.33069"
   enable-background="new 0 0 762.67 341.679"
   xml:space="preserve"
   inkscape:version="0.47 r22583"
   sodipodi:docname="cockroach.svg"><metadata
     id="metadata3594"><rdf:RDF><cc:Work
         rdf:about=""><dc:format>image/svg+xml</dc:format><dc:type
           rdf:resource="http://purl.org/dc/dcmitype/StillImage" /><dc:title /></cc:Work></rdf:RDF></metadata><defs
     id="defs3592"><inkscape:perspective
       sodipodi:type="inkscape:persp3d"
       inkscape:vp_x="0 : 170.83949 : 1"
       inkscape:vp_y="0 : 1000 : 0"
       inkscape:vp_z="762.66998 : 170.83949 : 1"
       inkscape:persp3d-origin="381.33499 : 113.893 : 1"
       id="perspective3596" /></defs><sodipodi:namedview
     pagecolor="#ffffff"
     bordercolor="#666666"
     borderopacity="1"
     objecttolerance="10"
     gridtolerance="10"
     guidetolerance="10"
     inkscape:pageopacity="0"
     inkscape:pageshadow="2"
     inkscape:window-width="1440"
     inkscape:window-height="825"
     id="namedview3590"
     showgrid="false"
     inkscape:zoom="0.70710678"
     inkscape:cx="213.199"
     inkscape:cy="187.87818"
     inkscape:window-x="0"
     inkscape:window-y="24"
     inkscape:window-maximized="1"
     inkscape:current-layer="layer2"
     inkscape:snap-bbox="true"
     inkscape:snap-grids="false"
     inkscape:snap-to-guides="false"
     inkscape:bbox-paths="true"
     inkscape:object-paths="true"
     inkscape:snap-intersection-paths="true"
     inkscape:bbox-nodes="true"
     units="mm" /><g
     inkscape:groupmode="layer"
     id="layer2"
     inkscape:label="new"
     style="display:inline"
     transform="translate(0,12.651687)"><path
       style="fill:none;stroke:#000000;stroke-width:1px;stroke-linecap:butt;stroke-linejoin:miter;stroke-opacity:1"
       d="m 10.500038,91.918995 18.991999,0 0,15.826995 -18.991999,0 0,-15.826995 z"
       id="path5355" /><path
       style="fill:none;stroke:#000000;stroke-width:1px;stroke-linecap:butt;stroke-linejoin:miter;stroke-opacity:1"
       d="m 10.500038,229.10599 18.991999,0 0,14.776 -18.991999,0 0,-14.776 z"
       id="path5359" /><path
       style="fill:none;stroke:#000000;stroke-width:1px;stroke-linecap:butt;stroke-linejoin:miter;stroke-opacity:1"
       d="m 89.635036,229.09398 18.992004,0 0,14.788 -18.992004,0 0,-14.788 z"
       id="path5361" /><path
       style="fill:none;stroke:#000000;stroke-width:1px;stroke-linecap:butt;stroke-linejoin:miter;stroke-opacity:1"
       d="m 168.76903,229.10599 18.992,0 0,14.776 -18.992,0 0,-14.776 z"
       id="path5363" /><path
       style="fill:none;stroke:#000000;stroke-width:1px;stroke-linecap:butt;stroke-linejoin:miter;stroke-opacity:1"
       d="m 187.76103,91.918995 -18.992,0 0,15.826995 18.992,0 0,-15.826995 z"
       id="path5365" /><path
       style="fill:none;stroke:#000000;stroke-width:1px;stroke-linecap:butt;stroke-linejoin:miter;stroke-opacity:1"
       d="m 89.635036,91.918995 18.992004,0 0,15.826995 -18.992004,0 0,-15.826995 z"
       id="path5367" /><path
       style="fill:none;stroke:#000000;stroke-width:1px;stroke-linecap:butt;stroke-linejoin:miter;stroke-opacity:1"
       d="m 10.500038,109.766 18.992998,0 0,6.18 60.141998,0 0,-6.085 18.991996,0 0,6.085 60.142,0 0,-6.085 18.992,0 0,38.44299 -21.021,0.166 -10e-4,-6.188 -8.178,0 0,6.188 -14.561,0 0,6.257 -89.184995,0.002 0,-6.259 -15.113999,0 0,-6.188 -8.309,0 0,6.081 -20.891998,0.107 0,-38.70399 z"
       id="path5369" /><path
       style="fill:none;stroke:#000000;stroke-width:1px;stroke-linecap:butt;stroke-linejoin:miter;stroke-opacity:1"
       d="m 54.815034,156.63 0,10.841 89.184996,0.003 0,-10.841 -89.184996,-0.003 z"
       id="path5371" /><path
       style="fill:none;stroke:#000000;stroke-width:1px;stroke-linecap:butt;stroke-linejoin:miter;stroke-opacity:1"
       d="m 54.815034,169.369 0,10.841 89.184996,-0.003 0,-10.839 -89.184996,0.001 z"
       id="path5373" /><path
       style="fill:none;stroke:#000000;stroke-width:1px;stroke-linecap:butt;stroke-linejoin:miter;stroke-opacity:1"
       d="m 10.500038,188.37099 0,38.836 18.992998,0 0,-6.313 60.141998,0 0,6.085 18.991996,0 0,-6.085 60.142,0 0,6.313 18.992,0 0,-38.836 -20.891,0 0,6.188 -7.756,0 0,-6.188 -15.114,0 0,-6.258 -89.184995,-0.002 0,6.26 -15.113999,0 0,6.188 -8.309,0 0,-6.188 -20.891998,0 z"
       id="path5375" /><path
       style="fill:none;stroke:#000000;stroke-width:1px;stroke-linecap:butt;stroke-linejoin:miter;stroke-opacity:1"
       d="m 749.74134,91.402165 -6.24634,3.609831 22.166,38.391994 6.326,-3.653 -22.24566,-38.348825 z"
       id="path5377" /><path
       style="fill:none;stroke:#000000;stroke-width:1px;stroke-linecap:butt;stroke-linejoin:miter;stroke-opacity:1"
       d="M 752.608,140.94099 734.274,109.187 741.89,95.938996 763.93492,134.40024 752.608,140.94099 z"
       id="path5379"
       sodipodi:nodetypes="ccccc" /><path
       style="fill:none;stroke:#000000;stroke-width:1px;stroke-linecap:butt;stroke-linejoin:miter;stroke-opacity:1"
       d="m 741.649,147.26999 -21.55499,-37.33399 12.41899,0 18.45,31.95499 -9.314,5.379 z"
       id="path5381" /><path
       style="fill:none;stroke:#000000;stroke-width:1px;stroke-linecap:butt;stroke-linejoin:miter;stroke-opacity:1"
       d="m 717.90001,109.936 21.91399,38.39299 0,11.649 -21.89799,38.366 -177.599,0.027 -22.078,-38.393 0,-11.649 22.078,-38.39299 177.583,0 z"
       id="path5383" /><path
       style="fill:none;stroke:#000000;stroke-width:1px;stroke-linecap:butt;stroke-linejoin:miter;stroke-opacity:1"
       d="m 679.672,128.83 37.984,0 0,50.64599 -37.984,0 0,-50.64599 z"
       id="path5385" /><path
       style="fill:none;stroke:#000000;stroke-width:1px;stroke-linecap:butt;stroke-linejoin:miter;stroke-opacity:1"
       d="m 540.39601,128.83 37.984,0 0,50.64599 -37.984,0 0,-50.64599 z"
       id="path5387" /><path
       style="fill:none;stroke:#000000;stroke-width:1px;stroke-linecap:butt;stroke-linejoin:miter;stroke-opacity:1"
       d="m 553.69099,91.956997 15.827,0 0,15.827003 -15.827,0 0,-15.827003 z"
       id="path5389" /><path
       style="fill:none;stroke:#000000;stroke-width:1px;stroke-linecap:butt;stroke-linejoin:miter;stroke-opacity:1"
       d="m 571.417,91.956997 10.763,0 0,15.827003 -10.763,0 0,-15.827003 z"
       id="path5391" /><path
       style="fill:none;stroke:#000000;stroke-width:1px;stroke-linecap:butt;stroke-linejoin:miter;stroke-opacity:1"
       d="m 584.07899,91.956997 18.992,0 0,15.827003 -18.992,0 0,-15.827003 z"
       id="path5393" /><path
       style="fill:none;stroke:#000000;stroke-width:1px;stroke-linecap:butt;stroke-linejoin:miter;stroke-opacity:1"
       d="m 604.969,91.956997 12.662,0 0,15.827003 -12.662,0 0,-15.827003 z"
       id="path5395" /><path
       style="fill:none;stroke:#000000;stroke-width:1px;stroke-linecap:butt;stroke-linejoin:miter;stroke-opacity:1"
       d="m 619.53102,91.956997 18.992,0 0,15.827003 -18.992,0 0,-15.827003 z"
       id="path5397" /><path
       style="fill:none;stroke:#000000;stroke-width:1px;stroke-linecap:butt;stroke-linejoin:miter;stroke-opacity:1"
       d="m 741.648,161.03699 9.314,5.378 -18.47566,31.956 -12.39233,0 21.55399,-37.334 z"
       id="path5399" /><path
       style="fill:none;stroke:#000000;stroke-width:1px;stroke-linecap:butt;stroke-linejoin:miter;stroke-opacity:1"
       d="m 763.84836,173.85576 -11.24036,-6.49077 -18.289,31.677 7.46336,12.98293 22.066,-38.16916 z"
       id="path5401" /><path
       style="fill:none;stroke:#000000;stroke-width:1px;stroke-linecap:butt;stroke-linejoin:miter;stroke-opacity:1"
       d="m 765.661,174.90199 6.326,3.653 -22.168,38.345 -6.302,-3.644 22.144,-38.354 z"
       id="path5403" /><path
       style="fill:none;stroke:#000000;stroke-width:1px;stroke-linecap:butt;stroke-linejoin:miter;stroke-opacity:1"
       d="m 716.22289,200.19177 0.23011,15.90522 -18.992,0 0,-15.82699 18.76189,-0.0782 z"
       id="path5405" /><path
       style="fill:none;stroke:#000000;stroke-width:1px;stroke-linecap:butt;stroke-linejoin:miter;stroke-opacity:1"
       d="m 682.90101,200.27 12.662,0 0,15.82699 -12.662,0 0,-15.82699 z"
       id="path5407" /><path
       style="fill:none;stroke:#000000;stroke-width:1px;stroke-linecap:butt;stroke-linejoin:miter;stroke-opacity:1"
       d="m 681.00202,200.27 0,15.82699 -18.992,0 0,-15.82699 18.992,0 z"
       id="path5409" /><path
       style="fill:none;stroke:#000000;stroke-width:1px;stroke-linecap:butt;stroke-linejoin:miter;stroke-opacity:1"
       d="m 660.11103,200.27 0,15.82699 -10.763,0 0,-15.82699 10.763,0 z"
       id="path5411" /><path
       style="fill:none;stroke:#000000;stroke-width:1px;stroke-linecap:butt;stroke-linejoin:miter;stroke-opacity:1"
       d="m 631.62299,200.27 0,15.82699 15.826,0 0,-15.82699 -15.826,0 z"
       id="path5413" /><path
       style="fill:none;stroke:#000000;stroke-width:1px;stroke-linecap:butt;stroke-linejoin:miter;stroke-opacity:1"
       d="m 540.31801,200.27 18.992,0 0,15.82699 -18.992,0 0,-15.82699 z"
       id="path5415" /><path
       style="fill:none;stroke:#000000;stroke-width:1px;stroke-linecap:butt;stroke-linejoin:miter;stroke-opacity:1"
       d="m 538.41803,200.27 -12.661,0 0,15.82699 12.661,0 0,-15.82699 z"
       id="path5417" /><path
       style="fill:none;stroke:#000000;stroke-width:1px;stroke-linecap:butt;stroke-linejoin:miter;stroke-opacity:1"
       d="m 523.85801,200.27 -18.992,0 0,15.82699 18.992,0 0,-15.82699 z"
       id="path5419" /><path
       style="fill:none;stroke:#000000;stroke-width:1px;stroke-linecap:butt;stroke-linejoin:miter;stroke-opacity:1"
       d="m 492.205,200.27 10.762,0 0,15.82699 -10.762,0 0,-15.82699 z"
       id="path5421" /><path
       style="fill:none;stroke:#000000;stroke-width:1px;stroke-linecap:butt;stroke-linejoin:miter;stroke-opacity:1"
       d="m 490.30501,200.27 -15.827,0 0,15.82699 15.827,0 0,-15.82699 z"
       id="path5423" /><path
       style="fill:none;stroke:#000000;stroke-width:1px;stroke-linecap:butt;stroke-linejoin:miter;stroke-opacity:1"
       d="m 459.84304,200.36602 7.26507,4.22387 -22.40009,38.3041 -7.25,-4 22.38502,-38.52797 z"
       id="path5425" /><path
       style="fill:none;stroke:#000000;stroke-width:1px;stroke-linecap:butt;stroke-linejoin:miter;stroke-opacity:1"
       d="m 458.12502,199.56099 -10.18231,-5.97352 -18.48469,31.97352 6.833,11.667 21.834,-37.667 z"
       id="path5427" /><path
       style="fill:none;stroke:#000000;stroke-width:1px;stroke-linecap:butt;stroke-linejoin:miter;stroke-opacity:1"
       d="m 445.93808,192.4021 -10.06406,-5.92411 -22,38 13.846,-0.0836 18.21806,-31.99232 z"
       id="path5429" /><path
       style="fill:none;stroke:#000000;stroke-width:1px;stroke-linecap:butt;stroke-linejoin:miter;stroke-opacity:1"
       d="m 435.78302,172.22899 9.314,-5.378 -18.08081,-31.225 -12.36619,0 21.133,36.603 z"
       id="path5431" /><path
       style="fill:none;stroke:#000000;stroke-width:1px;stroke-linecap:butt;stroke-linejoin:miter;stroke-opacity:1"
       d="m 446.74202,165.90099 11.409,-6.586 -21.88562,-37.57942 -7.49538,13.03742 17.972,31.128 z"
       id="path5433" /><path
       style="fill:none;stroke:#000000;stroke-width:1px;stroke-linecap:butt;stroke-linejoin:miter;stroke-opacity:1"
       d="m 466.97915,154.20101 -22.28077,-38.2755 -7.04736,4.08349 22.144,38.35499 7.18413,-4.16298 z"
       id="path5435" /><path
       style="fill:none;stroke:#000000;stroke-width:1px;stroke-linecap:butt;stroke-linejoin:miter;stroke-opacity:1"
       d="m 478.65801,113.709 0,-15.827 -15.827,0 0,15.827 15.827,0 z"
       id="path5437" /><path
       style="fill:none;stroke:#000000;stroke-width:1px;stroke-linecap:butt;stroke-linejoin:miter;stroke-opacity:1"
       d="m 450.16902,97.882 10.762,0 0,15.827 -10.762,0 0,-15.827 z"
       id="path5439" /><path
       style="fill:none;stroke:#000000;stroke-width:1px;stroke-linecap:butt;stroke-linejoin:miter;stroke-opacity:1"
       d="m 429.27803,97.882 18.992,0 0,15.827 -18.992,0 0,-15.827 z"
       id="path5441" /><path
       style="fill:none;stroke:#000000;stroke-width:1px;stroke-linecap:butt;stroke-linejoin:miter;stroke-opacity:1"
       d="m 414.71703,97.882 0,15.827 12.661,0 0,-15.827 -12.661,0 z"
       id="path5443" /><path
       style="fill:none;stroke:#000000;stroke-width:1px;stroke-linecap:butt;stroke-linejoin:miter;stroke-opacity:1"
       d="m 393.82601,97.882 0,15.827 18.992,0 0,-15.827 -18.992,0 z"
       id="path5445" /><path
       style="fill:none;stroke:#000000;stroke-width:1px;stroke-linecap:butt;stroke-linejoin:miter;stroke-opacity:1"
       d="m 412.81703,154.88799 -37.984,0 0,50.646 37.984,0 0,-50.646 z"
       id="path5447" /><path
       style="fill:none;stroke:#000000;stroke-width:1px;stroke-linecap:butt;stroke-linejoin:miter;stroke-opacity:1"
       d="m 235.45803,115.894 0,19.12499 -22.125,38.5 0,11.75 22,38.25 66.49999,0.375 12.875,20.25 19,0 12.875,-19.75 65.125,-0.125 23.25,-40 0,-10 -22.25,-38.625 0.125,-19.99999 -19,-0.25 -14.25,20.37499 -112.625,0 -12.375,-19.99999 -19.12499,0.125 z"
       id="path5449" /><path
       style="fill:none;stroke:#000000;stroke-width:1px;stroke-linecap:butt;stroke-linejoin:miter;stroke-opacity:1"
       d="m 235.39802,154.88799 37.984,0 0,50.646 -37.984,0 0,-50.646 z"
       id="path5451" /><path
       style="fill:none;stroke:#000000;stroke-width:1px;stroke-linecap:butt;stroke-linejoin:miter;stroke-opacity:1"
       d="m 314.45802,246.47799 19.167,-0.167 0,16.083 -19.084,-0.166 -0.083,-15.75 z"
       id="path5453" /><path
       style="fill:none;stroke:#000000;stroke-width:1px;stroke-linecap:butt;stroke-linejoin:miter;stroke-opacity:1"
       d="m 335.62502,246.39399 12.333,0.084 0.25,15.833 -12.75,0.083 0.167,-16 z"
       id="path5457" /><path
       style="fill:none;stroke:#000000;stroke-width:1px;stroke-linecap:butt;stroke-linejoin:miter;stroke-opacity:1"
       d="m 350.04102,246.47799 18.917,0 -0.10085,15.91556 -18.81615,-0.0826 0,-15.833 z"
       id="path5459" /><path
       style="fill:none;stroke:#000000;stroke-width:1px;stroke-linecap:butt;stroke-linejoin:miter;stroke-opacity:1"
       d="m 370.87402,246.39399 10.834,0.084 -0.30032,15.83403 -10.61668,0.082 0.083,-16 z"
       id="path5461" /><path
       style="fill:none;stroke:#000000;stroke-width:1px;stroke-linecap:butt;stroke-linejoin:miter;stroke-opacity:1"
       d="m 383.62402,246.47799 15.834,-0.084 0,15.834 -15.834,0.25 0,-16 z"
       id="path5463" /><path
       style="fill:none;stroke:#000000;stroke-width:1px;stroke-linecap:butt;stroke-linejoin:miter;stroke-opacity:1"
       d="m 235.40002,98.136 18.994,0 0,15.827 -18.994,0 0,-15.827 z"
       id="path5465" /><path
       style="fill:none;stroke:#000000;stroke-width:1px;stroke-linecap:butt;stroke-linejoin:miter;stroke-opacity:1"
       d="m 256.29403,98.136 12.661,0 0,15.827 -12.661,0 0,-15.827 z"
       id="path5467" /><path
       style="fill:none;stroke:#000000;stroke-width:1px;stroke-linecap:butt;stroke-linejoin:miter;stroke-opacity:1"
       d="m 270.85403,98.136 0,15.827 18.992,0 0,-15.827 -18.992,0 z"
       id="path5469" /><path
       style="fill:none;stroke:#000000;stroke-width:1px;stroke-linecap:butt;stroke-linejoin:miter;stroke-opacity:1"
       d="m 302.38864,113.962 0.11938,-15.826 -10.925,0 0.163,15.826 10.64262,0 z"
       id="path5473" /><path
       style="fill:none;stroke:#000000;stroke-width:1px;stroke-linecap:butt;stroke-linejoin:miter;stroke-opacity:1"
       d="m 304.40704,98.136 0,15.827 15.82699,0 0,-15.827 -15.82699,0 z"
       id="path5475" /><path
       style="fill:none;stroke:#000000;stroke-width:1px;stroke-linecap:butt;stroke-linejoin:miter;stroke-opacity:1"
       d="m 33.422904,149.89879 -0.03256,-6.3641 5.103629,1.4e-4 0.08839,6.45235 14.72792,-0.0884 1e-6,4.83022 -42.810243,9.4e-4 -3e-6,-4.74278 22.922866,-0.0884 z"
       id="path5477"
       sodipodi:nodetypes="ccccccccc" /><path
       style="fill:none;stroke:#000000;stroke-width:1px;stroke-linecap:butt;stroke-linejoin:miter;stroke-opacity:1"
       d="m 10.500036,156.63 2e-6,10.841 42.810244,0 -2e-6,-10.841 -42.810244,0 z"
       id="path5479"
       sodipodi:nodetypes="ccccc" /><path
       sodipodi:nodetypes="ccccccccc"
       id="path5495"
       d="m 33.422904,186.94121 -0.03256,6.3641 5.103629,-1.4e-4 0.08839,-6.45235 14.72792,0.0884 1e-6,-4.83022 -42.810243,-9.4e-4 -3e-6,4.74278 22.922866,0.0884 z"
       style="fill:none;stroke:#000000;stroke-width:1px;stroke-linecap:butt;stroke-linejoin:miter;stroke-opacity:1" /><path
       sodipodi:nodetypes="ccccc"
       id="path5497"
       d="m 10.500036,180.21 2e-6,-10.841 42.810244,0 -2e-6,10.841 -42.810244,0 z"
       style="fill:none;stroke:#000000;stroke-width:1px;stroke-linecap:butt;stroke-linejoin:miter;stroke-opacity:1" /><path
       sodipodi:nodetypes="ccccccccc"
       id="path5499"
       d="m 164.83817,149.90179 0.0326,-6.3641 -5.10363,1.4e-4 -0.0884,6.45235 -14.47792,-0.0934 0,4.83022 42.56024,0.006 1e-5,-4.74278 -22.9229,-0.0884 z"
       style="fill:none;stroke:#000000;stroke-width:1px;stroke-linecap:butt;stroke-linejoin:miter;stroke-opacity:1" /><path
       sodipodi:nodetypes="ccccc"
       id="path5501"
       d="m 187.76104,156.633 0,10.841 -42.56025,0 10e-6,-10.841 42.56024,0 z"
       style="fill:none;stroke:#000000;stroke-width:1px;stroke-linecap:butt;stroke-linejoin:miter;stroke-opacity:1" /><path
       style="fill:none;stroke:#000000;stroke-width:1px;stroke-linecap:butt;stroke-linejoin:miter;stroke-opacity:1"
       d="m 164.83817,186.94421 0.0326,6.3641 -5.10363,-1.4e-4 -0.0884,-6.45235 -14.41542,0.0874 0,-4.83022 42.49774,0 1e-5,4.74278 -22.9229,0.0884 z"
       id="path5503"
       sodipodi:nodetypes="ccccccccc" /><path
       style="fill:none;stroke:#000000;stroke-width:1px;stroke-linecap:butt;stroke-linejoin:miter;stroke-opacity:1"
       d="m 187.76104,180.213 0,-10.841 -42.49775,-0.006 10e-6,10.841 42.49774,0.006 z"
       id="path5505"
       sodipodi:nodetypes="ccccc" /><path
       style="fill:none;stroke:#000000;stroke-width:1px;stroke-linecap:butt;stroke-linejoin:miter;stroke-opacity:1"
       d="m 214.75003,38.933997 11.613,-8.130999 19.0419,-24.5796684 6.25378,-1.7510724 4.75006,2.9955117 33.37424,71.4212281 -17.035,-3.003998 -19.69802,-41.935475 -4.01656,-2.696416 -5.0764,0.442891 -23.06501,16.01 -6.14199,-8.772002 z"
       id="path5507" /><path
       id="path5509"
       d="m 302.82304,40.435001 11.613,-8.130999 19.0419,-24.579668 6.25378,-1.7510724 4.75006,2.9955113 33.37424,71.4212281 -17.035,-3.003998 -19.69802,-41.935475 -4.01656,-2.696416 -5.0764,0.442891 -23.06501,16.01 -6.14199,-8.772002 z"
       style="fill:none;stroke:#000000;stroke-width:1px;stroke-linecap:butt;stroke-linejoin:miter;stroke-opacity:1" /><path
       style="fill:none;stroke:#000000;stroke-width:1px;stroke-linecap:butt;stroke-linejoin:miter;stroke-opacity:1"
       d="m 399.87705,42.805 11.613,-8.130999 19.0419,-24.579668 6.25378,-1.7510721 4.75006,2.9955121 33.37424,71.421227 -17.035,-3.003998 -19.69802,-41.935475 -4.01656,-2.696416 -5.0764,0.442891 -23.06501,16.01 -6.14199,-8.772002 z"
       id="path5511" /><path
       id="path5513"
       d="m 402.14902,298.67801 11.613,-8.131 19.0419,-24.57967 6.25378,-1.75107 4.75006,2.99551 33.37424,71.42123 -17.035,-3.004 -19.69802,-41.93548 -4.01656,-2.69641 -5.0764,0.44289 -23.06501,16.01 -6.14199,-8.772 z"
       style="fill:none;stroke:#000000;stroke-width:1px;stroke-linecap:butt;stroke-linejoin:miter;stroke-opacity:1" /><path
       style="fill:none;stroke:#000000;stroke-width:1px;stroke-linecap:butt;stroke-linejoin:miter;stroke-opacity:1"
       d="m 307.81303,305.37 11.613,-8.131 19.0419,-24.57967 6.25378,-1.75107 4.75006,2.99551 33.37424,71.42123 -17.035,-3.004 -19.69802,-41.93548 -4.01656,-2.69641 -5.0764,0.44289 -23.06501,16.01 -6.14199,-8.772 z"
       id="path5515" /><path
       id="path5517"
       d="m 214.41103,298.091 11.613,-8.131 19.0419,-24.57967 6.25378,-1.75107 4.75006,2.99551 33.37424,71.42123 -17.035,-3.004 -19.69802,-41.93548 -4.01656,-2.69641 -5.0764,0.44289 -23.06501,16.01 -6.14199,-8.772 z"
       style="fill:none;stroke:#000000;stroke-width:1px;stroke-linecap:butt;stroke-linejoin:miter;stroke-opacity:1" /></g></svg>