<?xml version="1.0" encoding="UTF-8" standalone="no"?>
<!-- Created with Inkscape (http://www.inkscape.org/) -->

<svg
   xmlns:dc="http://purl.org/dc/elements/1.1/"
   xmlns:cc="http://creativecommons.org/ns#"
   xmlns:rdf="http://www.w3.org/1999/02/22-rdf-syntax-ns#"
   xmlns:svg="http://www.w3.org/2000/svg"
   xmlns="http://www.w3.org/2000/svg"
   xmlns:sodipodi="http://sodipodi.sourceforge.net/DTD/sodipodi-0.dtd"
   xmlns:inkscape="http://www.inkscape.org/namespaces/inkscape"
   width="744.09448819"
   height="1052.3622047"
   id="svg2"
   version="1.1"
   inkscape:version="0.47 r22583"
   sodipodi:docname="tricky_polygon.svg">
  <defs
     id="defs4">
    <inkscape:perspective
       sodipodi:type="inkscape:persp3d"
       inkscape:vp_x="0 : 526.18109 : 1"
       inkscape:vp_y="0 : 1000 : 0"
       inkscape:vp_z="744.09448 : 526.18109 : 1"
       inkscape:persp3d-origin="372.04724 : 350.78739 : 1"
       id="perspective10" />
  </defs>
  <sodipodi:namedview
     id="base"
     pagecolor="#ffffff"
     bordercolor="#666666"
     borderopacity="1.0"
     inkscape:pageopacity="0.0"
     inkscape:pageshadow="2"
     inkscape:zoom="1.4"
     inkscape:cx="447.86472"
     inkscape:cy="727.21493"
     inkscape:document-units="px"
     inkscape:current-layer="layer1"
     showgrid="false"
     inkscape:window-width="1153"
     inkscape:window-height="820"
     inkscape:window-x="214"
     inkscape:window-y="24"
     inkscape:window-maximized="0" />
  <metadata
     id="metadata7">
    <rdf:RDF>
      <cc:Work
         rdf:about="">
        <dc:format>image/svg+xml</dc:format>
        <dc:type
           rdf:resource="http://purl.org/dc/dcmitype/StillImage" />
        <dc:title />
      </cc:Work>
    </rdf:RDF>
  </metadata>
  <g
     inkscape:label="Layer 1"
     inkscape:groupmode="layer"
     id="layer1">
    <path
       style="fill:none;stroke:#000000;stroke-width:1px;stroke-linecap:butt;stroke-linejoin:miter;stroke-opacity:1"
       d="M 222.51051,336.06338 331.08194,200.34909 182.51051,91.777669 239.65337,10.349089 523.93908,298.92052 395.36765,526.06338 l -60,-42.85714 58.57143,-72.85715 -48.57143,-48.57142 44.28572,-55.71429 47.14285,32.85714 17.14286,-45.71428 -92.85714,-50 -117.14286,165.71428 -21.42857,-72.85714 z"
       id="bigpanel" />
    <path
       style="fill:none;stroke:#000000;stroke-width:1px;stroke-linecap:butt;stroke-linejoin:miter;stroke-opacity:1"
       d="m 249.65337,64.634809 -25.71429,31.42857 57.14286,40.000001 24.28571,-21.42857 -55.71428,-50.000001 z"
       id="bighole" />
    <path
       style="fill:none;stroke:#000000;stroke-width:1px;stroke-linecap:butt;stroke-linejoin:miter;stroke-opacity:1"
       d="M 305.36765,350.34909 373.93908,407.49195 189.65337,643.20624 131.08194,568.92052 305.36765,350.34909 z"
       id="path2825" />
    <path
       style="fill:none;stroke:#000000;stroke-width:1px;stroke-linecap:butt;stroke-linejoin:miter;stroke-opacity:1"
       d="m 91.081942,727.49195 -35.714284,-55.71428 57.142862,-54.28571 38.57142,32.85714 -17.14286,22.85714 -24.28572,-15.71428 -18.571419,24.2857 15.714289,24.28572 -15.714288,21.42857 z"
       id="path2827"
       sodipodi:nodetypes="ccccccccc" />
    <path
       style="fill:none;stroke:#000000;stroke-width:1px;stroke-linecap:butt;stroke-linejoin:miter;stroke-opacity:1"
       d="m 113.93908,586.06338 67.14286,72.85714 -91.428569,98.57143 -72.857143,-87.14286 97.142852,-84.28571 z"
       id="path2829" />
    <path
       style="fill:none;stroke:#000000;stroke-width:1px;stroke-linecap:butt;stroke-linejoin:miter;stroke-opacity:1"
       d="M 320,128.79076 298.57143,150.93362 350,200.21933 377.85714,170.93362 336.42857,169.50504 320,128.79076 z"
       id="path2828" />
    <path
       style="fill:none;stroke:#000000;stroke-width:1px;stroke-linecap:butt;stroke-linejoin:miter;stroke-opacity:1"
       d="M 375.71428,216.6479 420,205.21933 418.57143,258.07647 375.71428,216.6479 z"
       id="path2830" />
    <path
       style="fill:none;stroke:#000000;stroke-width:1px;stroke-linecap:butt;stroke-linejoin:miter;stroke-opacity:1"
       d="m 440,271.6479 32.14285,11.42857 -10,40 45,-22.85714 -56.42857,-55 L 440,271.6479 z"
       id="path2832" />
    <path
       style="fill:none;stroke:#000000;stroke-width:1px;stroke-linecap:butt;stroke-linejoin:miter;stroke-opacity:1"
       d="m 403.57143,433.79076 -34.28572,51.42857 15,9.28571 32.85714,-52.14285 -13.57142,-8.57143 z"
       id="path2836" />
    <path
       style="fill:none;stroke:#000000;stroke-width:1px;stroke-linecap:butt;stroke-linejoin:miter;stroke-opacity:1"
       d="M 394.28571,331.6479 462.85714,379.50504 440,428.07647 l -71.42857,-59.28571 55,25 7.85714,-13.57143 -42.85714,-30 5.71428,-18.57143 z"
       id="path2838" />
  </g>
</svg>
