<?xml version="1.0" encoding="utf-8"?>
<!-- Generator: Adobe Illustrator 13.0.1, SVG Export Plug-In . SVG Version: 6.00 Build 14948)  -->
<!DOCTYPE svg PUBLIC "-//W3C//DTD SVG 1.1//EN" "http://www.w3.org/Graphics/SVG/1.1/DTD/svg11.dtd">
<svg version="1.1" id="图层_2" xmlns="http://www.w3.org/2000/svg" xmlns:xlink="http://www.w3.org/1999/xlink" x="0px" y="0px"
	 width="762.67px" height="341.679px" viewBox="0 0 762.67 341.679" enable-background="new 0 0 762.67 341.679"
	 xml:space="preserve">
<polygon fill="none" stroke="#000000" stroke-width="0.7087" stroke-linecap="round" stroke-linejoin="round" points="
	434.708,238.894 457.125,200.561 449.875,196.311 427.458,234.894 "/>
<polygon fill="none" stroke="#000000" stroke-width="0.7087" stroke-linecap="round" stroke-linejoin="round" points="
	426.291,233.228 448.125,195.561 437.958,189.561 419.458,221.561 "/>
<polygon fill="none" stroke="#000000" stroke-width="0.7087" stroke-linecap="round" stroke-linejoin="round" points="
	403.874,220.478 417.791,220.394 436.208,188.561 425.874,182.478 "/>
<polygon fill="none" stroke="#000000" stroke-width="0.7087" stroke-linecap="round" stroke-linejoin="round" points="
	336.583,220.394 323.708,240.144 304.708,240.144 291.833,219.894 225.333,219.519 203.333,181.269 203.333,169.519 
	225.458,131.019 225.458,111.894 244.583,111.769 256.958,131.769 369.583,131.769 383.833,111.394 402.833,111.644 
	402.708,131.644 424.958,170.269 424.958,180.269 401.708,220.269 "/>
<polygon fill="none" stroke="#000000" stroke-width="0.7087" stroke-linecap="round" stroke-linejoin="round" points="
	304.458,242.478 323.625,242.311 323.625,258.394 304.541,258.228 "/>
<polygon fill="none" stroke="#000000" stroke-width="0.7087" stroke-linecap="round" stroke-linejoin="round" points="
	325.625,242.394 337.958,242.478 338.208,258.311 325.458,258.394 "/>
<polygon fill="none" stroke="#000000" stroke-width="0.7087" stroke-linecap="round" stroke-linejoin="round" points="
	340.041,242.478 358.958,242.478 358.958,258.394 340.041,258.311 "/>
<polygon fill="none" stroke="#000000" stroke-width="0.7087" stroke-linecap="round" stroke-linejoin="round" points="
	360.874,242.394 371.708,242.478 371.541,258.311 360.791,258.394 "/>
<polygon fill="none" stroke="#000000" stroke-width="0.7087" stroke-linecap="round" stroke-linejoin="round" points="
	373.624,242.478 389.458,242.394 389.458,258.228 373.624,258.478 "/>
<rect x="225.4" y="94.136" fill="none" stroke="#000000" width="18.994" height="15.827"/>
<rect x="246.294" y="94.136" fill="none" stroke="#000000" width="12.661" height="15.827"/>
<rect x="260.854" y="94.136" fill="none" stroke="#000000" width="18.992" height="15.827"/>
<polygon fill="none" stroke="#000000" points="281.583,94.136 292.508,94.136 292.508,109.962 281.746,109.962 "/>
<rect x="294.407" y="94.136" fill="none" stroke="#000000" width="15.827" height="15.827"/>
<polygon fill="none" stroke="#000000" points="404.65,131.626 417.071,131.626 435.097,162.851 425.783,168.229 "/>
<polygon fill="none" stroke="#000000" points="418.77,130.773 426.36,117.571 448.151,155.315 436.742,161.901 "/>
<polygon fill="none" stroke="#000000" points="427.651,116.009 434.896,111.811 457.062,150.153 449.795,154.364 "/>
<rect x="383.826" y="93.882" fill="none" stroke="#000000" width="18.992" height="15.827"/>
<rect x="404.717" y="93.882" fill="none" stroke="#000000" width="12.661" height="15.827"/>
<rect x="419.278" y="93.882" fill="none" stroke="#000000" width="18.992" height="15.827"/>
<rect x="440.169" y="93.882" fill="none" stroke="#000000" width="10.762" height="15.827"/>
<rect x="452.831" y="93.882" fill="none" stroke="#000000" width="15.827" height="15.827"/>
<rect x="225.398" y="150.888" fill="none" stroke="#000000" width="37.984" height="50.646"/>
<rect x="364.833" y="150.888" fill="none" stroke="#000000" width="37.984" height="50.646"/>
<rect x="0.5" y="87.919" fill="none" stroke="#000000" width="18.992" height="15.827"/>
<rect x="79.635" y="87.919" fill="none" stroke="#000000" width="18.992" height="15.827"/>
<rect x="158.769" y="87.919" fill="none" stroke="#000000" width="18.992" height="15.827"/>
<polygon fill="none" stroke="#000000" points="158.769,105.861 177.761,105.861 177.761,144.47 156.74,144.47 156.739,138.282 
	148.561,138.282 148.561,144.47 134,144.47 134,150.727 44.815,150.729 44.815,144.47 29.701,144.47 29.701,138.282 21.392,138.282 
	21.392,144.363 0.5,144.47 0.5,105.766 19.493,105.766 19.493,111.946 79.635,111.946 79.635,105.861 98.627,105.861 
	98.627,111.946 158.769,111.946 "/>
<rect x="0.5" y="225.106" fill="none" stroke="#000000" width="18.992" height="14.776"/>
<rect x="79.635" y="225.094" fill="none" stroke="#000000" width="18.992" height="14.788"/>
<rect x="158.769" y="225.106" fill="none" stroke="#000000" width="18.992" height="14.776"/>
<polygon fill="none" stroke="#000000" points="158.769,223.207 177.761,223.207 177.761,184.371 156.87,184.371 156.87,190.559 
	149.114,190.559 149.114,184.371 134,184.371 134,178.113 44.815,178.111 44.815,184.371 29.701,184.371 29.701,190.559 
	21.392,190.559 21.392,184.241 0.5,184.371 0.5,223.207 19.493,223.207 19.493,216.894 79.635,216.894 79.635,222.979 
	98.627,222.979 98.627,216.894 158.769,216.894 "/>
<polygon fill="none" stroke="#000000" points="0.5,178.11 44.815,178.111 44.815,184.371 29.701,184.371 29.701,190.559 
	23.37,190.559 23.37,184.371 0.5,184.371 "/>
<rect x="0.5" y="165.369" fill="none" stroke="#000000" width="44.315" height="10.841"/>
<rect x="0.5" y="152.63" fill="none" stroke="#000000" width="44.315" height="10.841"/>
<polygon fill="none" stroke="#000000" points="0.5,150.73 0.5,144.47 23.37,144.47 23.395,138.394 29.701,138.282 29.701,144.47 
	44.815,144.47 44.815,150.729 "/>
<rect x="44.815" y="152.631" fill="none" stroke="#000000" width="89.185" height="10.841"/>
<rect x="44.815" y="165.368" fill="none" stroke="#000000" width="89.185" height="10.841"/>
<polygon fill="none" stroke="#000000" points="134,178.113 134,184.371 149.114,184.371 149.114,190.559 154.97,190.559 
	154.97,184.241 177.761,184.371 177.761,178.114 "/>
<rect x="134" y="165.366" fill="none" stroke="#000000" width="43.761" height="10.841"/>
<rect x="134" y="152.633" fill="none" stroke="#000000" width="43.761" height="10.841"/>
<polygon fill="none" stroke="#000000" points="134,150.727 177.761,150.727 177.761,144.47 154.891,144.47 154.891,138.282 
	148.561,138.282 148.561,144.47 134,144.47 "/>
<rect x="464.478" y="196.27" fill="none" stroke="#000000" width="15.827" height="15.827"/>
<rect x="482.205" y="196.27" fill="none" stroke="#000000" width="10.762" height="15.827"/>
<rect x="494.866" y="196.27" fill="none" stroke="#000000" width="18.992" height="15.827"/>
<rect x="515.757" y="196.27" fill="none" stroke="#000000" width="12.661" height="15.827"/>
<rect x="530.318" y="196.27" fill="none" stroke="#000000" width="18.992" height="15.827"/>
<polygon fill="none" stroke="#000000" points="530.317,194.371 707.916,194.344 729.814,155.978 729.814,144.329 707.9,105.936 
	628.523,105.936 628.395,105.682 609.531,105.682 609.278,105.936 530.317,105.936 508.239,144.329 508.239,155.978 "/>
<rect x="530.396" y="124.83" fill="none" stroke="#000000" width="37.984" height="50.646"/>
<rect x="669.672" y="124.83" fill="none" stroke="#000000" width="37.984" height="50.646"/>
<rect x="687.461" y="196.27" fill="none" stroke="#000000" width="18.992" height="15.827"/>
<rect x="672.901" y="196.27" fill="none" stroke="#000000" width="12.662" height="15.827"/>
<rect x="652.01" y="196.27" fill="none" stroke="#000000" width="18.992" height="15.827"/>
<rect x="639.348" y="196.27" fill="none" stroke="#000000" width="10.763" height="15.827"/>
<rect x="621.623" y="196.27" fill="none" stroke="#000000" width="15.826" height="15.827"/>
<polygon fill="none" stroke="#000000" points="710.094,194.371 722.514,194.371 740.962,162.415 731.648,157.037 "/>
<polygon fill="none" stroke="#000000" points="724.319,195.042 731.979,208.367 754.015,169.952 742.608,163.365 "/>
<polygon fill="none" stroke="#000000" points="733.517,209.256 739.819,212.9 761.987,174.555 755.661,170.902 "/>
<polygon fill="none" stroke="#000000" points="710.094,105.936 731.649,143.27 740.963,137.891 722.513,105.936 "/>
<polygon fill="none" stroke="#000000" points="724.274,105.187 731.89,91.939 754.015,130.354 742.608,136.941 "/>
<polygon fill="none" stroke="#000000" points="733.495,91.012 739.797,87.37 761.987,125.751 755.661,129.404 "/>
<rect x="543.691" y="87.957" fill="none" stroke="#000000" width="15.827" height="15.827"/>
<rect x="561.417" y="87.957" fill="none" stroke="#000000" width="10.763" height="15.827"/>
<rect x="574.079" y="87.957" fill="none" stroke="#000000" width="18.992" height="15.827"/>
<rect x="594.969" y="87.957" fill="none" stroke="#000000" width="12.662" height="15.827"/>
<rect x="609.531" y="87.957" fill="none" stroke="#000000" width="18.992" height="15.827"/>
<g id="BLOCK_x5F_RECORD_1_">
	<g id="LINE_458_">
		
			<line fill="none" stroke="#000000" stroke-width="0.7087" stroke-linecap="round" stroke-linejoin="round" x1="315.56" y1="302.016" x2="325.887" y2="294.784"/>
	</g>
	<g id="LINE_457_">
		
			<line fill="none" stroke="#000000" stroke-width="0.7087" stroke-linecap="round" stroke-linejoin="round" x1="309.427" y1="293.239" x2="297.813" y2="301.37"/>
	</g>
	<g id="LINE_144_">
		
			<line fill="none" stroke="#000000" stroke-width="0.7087" stroke-linecap="round" stroke-linejoin="round" x1="309.427" y1="293.239" x2="327.489" y2="269.709"/>
	</g>
	<g id="LINE_141_">
		
			<line fill="none" stroke="#000000" stroke-width="0.7087" stroke-linecap="round" stroke-linejoin="round" x1="355.812" y1="338.321" x2="336.933" y2="297.749"/>
	</g>
	<g id="LINE_140_">
		
			<line fill="none" stroke="#000000" stroke-width="0.7087" stroke-linecap="round" stroke-linejoin="round" x1="315.56" y1="302.016" x2="303.955" y2="310.141"/>
	</g>
	<g id="LINE_132_">
		
			<line fill="none" stroke="#000000" stroke-width="0.7087" stroke-linecap="round" stroke-linejoin="round" x1="297.813" y1="301.37" x2="303.955" y2="310.141"/>
	</g>
	<g id="LINE_131_">
		
			<line fill="none" stroke="#000000" stroke-width="0.7087" stroke-linecap="round" stroke-linejoin="round" x1="340.173" y1="271.106" x2="372.847" y2="341.325"/>
	</g>
	<g id="LINE_127_">
		
			<line fill="none" stroke="#000000" stroke-width="0.7087" stroke-linecap="round" stroke-linejoin="round" x1="355.812" y1="338.321" x2="372.847" y2="341.325"/>
	</g>
	<g id="ARC_2_">
		<path fill="none" stroke="#000000" stroke-width="0.7087" stroke-linecap="round" stroke-linejoin="round" d="M336.933,297.749
			c-1.739-3.736-6.177-5.355-9.914-3.617c-0.31,0.135-0.86,0.453-1.132,0.652"/>
	</g>
	<g id="ARC_3_">
		<path fill="none" stroke="#000000" stroke-width="0.7087" stroke-linecap="round" stroke-linejoin="round" d="M340.173,271.106
			c-1.739-3.736-6.177-5.356-9.914-3.617c-0.917,0.369-2.211,1.406-2.771,2.221"/>
	</g>
</g>
<g id="BLOCK_x5F_RECORD_2_">
	<g id="LINE_83_">
		
			<line fill="none" stroke="#000000" stroke-width="0.7087" stroke-linecap="round" stroke-linejoin="round" x1="409.895" y1="295.325" x2="420.223" y2="288.092"/>
	</g>
	<g id="LINE_82_">
		
			<line fill="none" stroke="#000000" stroke-width="0.7087" stroke-linecap="round" stroke-linejoin="round" x1="403.762" y1="286.547" x2="392.149" y2="294.678"/>
	</g>
	<g id="LINE_79_">
		
			<line fill="none" stroke="#000000" stroke-width="0.7087" stroke-linecap="round" stroke-linejoin="round" x1="403.762" y1="286.547" x2="421.825" y2="263.018"/>
	</g>
	<g id="LINE_78_">
		
			<line fill="none" stroke="#000000" stroke-width="0.7087" stroke-linecap="round" stroke-linejoin="round" x1="450.147" y1="331.629" x2="431.269" y2="291.057"/>
	</g>
	<g id="LINE_77_">
		
			<line fill="none" stroke="#000000" stroke-width="0.7087" stroke-linecap="round" stroke-linejoin="round" x1="409.895" y1="295.325" x2="398.292" y2="303.45"/>
	</g>
	<g id="LINE_76_">
		
			<line fill="none" stroke="#000000" stroke-width="0.7087" stroke-linecap="round" stroke-linejoin="round" x1="392.149" y1="294.678" x2="398.292" y2="303.45"/>
	</g>
	<g id="LINE_31_">
		
			<line fill="none" stroke="#000000" stroke-width="0.7087" stroke-linecap="round" stroke-linejoin="round" x1="434.509" y1="264.415" x2="467.182" y2="334.633"/>
	</g>
	<g id="LINE_21_">
		
			<line fill="none" stroke="#000000" stroke-width="0.7087" stroke-linecap="round" stroke-linejoin="round" x1="450.147" y1="331.629" x2="467.182" y2="334.633"/>
	</g>
	<g id="ARC_4_">
		<path fill="none" stroke="#000000" stroke-width="0.7087" stroke-linecap="round" stroke-linejoin="round" d="M431.269,291.057
			c-1.739-3.736-6.177-5.355-9.913-3.617c-0.311,0.135-0.861,0.453-1.133,0.652"/>
	</g>
	<g id="ARC_1_">
		<path fill="none" stroke="#000000" stroke-width="0.7087" stroke-linecap="round" stroke-linejoin="round" d="M434.509,264.415
			c-1.739-3.736-6.177-5.356-9.913-3.617c-0.918,0.369-2.212,1.406-2.771,2.221"/>
	</g>
</g>
<g id="BLOCK_x5F_RECORD_3_">
	<g id="LINE_110_">
		
			<line fill="none" stroke="#000000" stroke-width="0.7087" stroke-linecap="round" stroke-linejoin="round" x1="222.157" y1="294.738" x2="232.485" y2="287.505"/>
	</g>
	<g id="LINE_109_">
		
			<line fill="none" stroke="#000000" stroke-width="0.7087" stroke-linecap="round" stroke-linejoin="round" x1="216.024" y1="285.96" x2="204.411" y2="294.091"/>
	</g>
	<g id="LINE_108_">
		
			<line fill="none" stroke="#000000" stroke-width="0.7087" stroke-linecap="round" stroke-linejoin="round" x1="216.024" y1="285.96" x2="234.086" y2="262.431"/>
	</g>
	<g id="LINE_106_">
		
			<line fill="none" stroke="#000000" stroke-width="0.7087" stroke-linecap="round" stroke-linejoin="round" x1="262.409" y1="331.042" x2="243.531" y2="290.47"/>
	</g>
	<g id="LINE_105_">
		
			<line fill="none" stroke="#000000" stroke-width="0.7087" stroke-linecap="round" stroke-linejoin="round" x1="222.157" y1="294.738" x2="210.553" y2="302.863"/>
	</g>
	<g id="LINE_104_">
		
			<line fill="none" stroke="#000000" stroke-width="0.7087" stroke-linecap="round" stroke-linejoin="round" x1="204.411" y1="294.091" x2="210.553" y2="302.863"/>
	</g>
	<g id="LINE_103_">
		
			<line fill="none" stroke="#000000" stroke-width="0.7087" stroke-linecap="round" stroke-linejoin="round" x1="246.771" y1="263.828" x2="279.444" y2="334.046"/>
	</g>
	<g id="LINE_102_">
		
			<line fill="none" stroke="#000000" stroke-width="0.7087" stroke-linecap="round" stroke-linejoin="round" x1="262.409" y1="331.042" x2="279.444" y2="334.046"/>
	</g>
	<g id="ARC_6_">
		<path fill="none" stroke="#000000" stroke-width="0.7087" stroke-linecap="round" stroke-linejoin="round" d="M243.531,290.47
			c-1.739-3.736-6.177-5.355-9.913-3.617c-0.311,0.135-0.861,0.453-1.133,0.652"/>
	</g>
	<g id="ARC_5_">
		<path fill="none" stroke="#000000" stroke-width="0.7087" stroke-linecap="round" stroke-linejoin="round" d="M246.771,263.828
			c-1.739-3.736-6.177-5.356-9.913-3.617c-0.918,0.369-2.212,1.406-2.771,2.221"/>
	</g>
</g>
<g id="BLOCK_x5F_RECORD_4_">
	<g id="LINE_118_">
		
			<line fill="none" stroke="#000000" stroke-width="0.7087" stroke-linecap="round" stroke-linejoin="round" x1="222.496" y1="35.581" x2="232.824" y2="28.348"/>
	</g>
	<g id="LINE_117_">
		
			<line fill="none" stroke="#000000" stroke-width="0.7087" stroke-linecap="round" stroke-linejoin="round" x1="216.363" y1="26.803" x2="204.75" y2="34.934"/>
	</g>
	<g id="LINE_116_">
		
			<line fill="none" stroke="#000000" stroke-width="0.7087" stroke-linecap="round" stroke-linejoin="round" x1="216.363" y1="26.803" x2="234.425" y2="3.274"/>
	</g>
	<g id="LINE_115_">
		
			<line fill="none" stroke="#000000" stroke-width="0.7087" stroke-linecap="round" stroke-linejoin="round" x1="262.748" y1="71.885" x2="243.87" y2="31.313"/>
	</g>
	<g id="LINE_114_">
		
			<line fill="none" stroke="#000000" stroke-width="0.7087" stroke-linecap="round" stroke-linejoin="round" x1="222.496" y1="35.581" x2="210.892" y2="43.706"/>
	</g>
	<g id="LINE_113_">
		
			<line fill="none" stroke="#000000" stroke-width="0.7087" stroke-linecap="round" stroke-linejoin="round" x1="204.75" y1="34.934" x2="210.892" y2="43.706"/>
	</g>
	<g id="LINE_112_">
		
			<line fill="none" stroke="#000000" stroke-width="0.7087" stroke-linecap="round" stroke-linejoin="round" x1="247.11" y1="4.67" x2="279.783" y2="74.889"/>
	</g>
	<g id="LINE_111_">
		
			<line fill="none" stroke="#000000" stroke-width="0.7087" stroke-linecap="round" stroke-linejoin="round" x1="262.748" y1="71.885" x2="279.783" y2="74.889"/>
	</g>
	<g id="ARC_8_">
		<path fill="none" stroke="#000000" stroke-width="0.7087" stroke-linecap="round" stroke-linejoin="round" d="M243.87,31.313
			c-1.739-3.736-6.177-5.355-9.913-3.617c-0.311,0.135-0.861,0.453-1.133,0.652"/>
	</g>
	<g id="ARC_7_">
		<path fill="none" stroke="#000000" stroke-width="0.7087" stroke-linecap="round" stroke-linejoin="round" d="M247.11,4.67
			c-1.739-3.736-6.177-5.356-9.913-3.617c-0.918,0.369-2.212,1.406-2.771,2.221"/>
	</g>
</g>
<g id="BLOCK_x5F_RECORD_5_">
	<g id="LINE_126_">
		
			<line fill="none" stroke="#000000" stroke-width="0.7087" stroke-linecap="round" stroke-linejoin="round" x1="310.569" y1="37.081" x2="320.897" y2="29.849"/>
	</g>
	<g id="LINE_125_">
		
			<line fill="none" stroke="#000000" stroke-width="0.7087" stroke-linecap="round" stroke-linejoin="round" x1="304.436" y1="28.304" x2="292.823" y2="36.435"/>
	</g>
	<g id="LINE_124_">
		
			<line fill="none" stroke="#000000" stroke-width="0.7087" stroke-linecap="round" stroke-linejoin="round" x1="304.436" y1="28.304" x2="322.499" y2="4.774"/>
	</g>
	<g id="LINE_123_">
		
			<line fill="none" stroke="#000000" stroke-width="0.7087" stroke-linecap="round" stroke-linejoin="round" x1="350.821" y1="73.386" x2="331.943" y2="32.813"/>
	</g>
	<g id="LINE_122_">
		
			<line fill="none" stroke="#000000" stroke-width="0.7087" stroke-linecap="round" stroke-linejoin="round" x1="310.569" y1="37.081" x2="298.965" y2="45.206"/>
	</g>
	<g id="LINE_121_">
		
			<line fill="none" stroke="#000000" stroke-width="0.7087" stroke-linecap="round" stroke-linejoin="round" x1="292.823" y1="36.435" x2="298.965" y2="45.206"/>
	</g>
	<g id="LINE_120_">
		
			<line fill="none" stroke="#000000" stroke-width="0.7087" stroke-linecap="round" stroke-linejoin="round" x1="335.183" y1="6.171" x2="367.856" y2="76.39"/>
	</g>
	<g id="LINE_119_">
		
			<line fill="none" stroke="#000000" stroke-width="0.7087" stroke-linecap="round" stroke-linejoin="round" x1="350.821" y1="73.386" x2="367.856" y2="76.39"/>
	</g>
	<g id="ARC_10_">
		<path fill="none" stroke="#000000" stroke-width="0.7087" stroke-linecap="round" stroke-linejoin="round" d="M331.943,32.813
			c-1.739-3.736-6.177-5.355-9.913-3.617c-0.311,0.135-0.861,0.453-1.133,0.652"/>
	</g>
	<g id="ARC_9_">
		<path fill="none" stroke="#000000" stroke-width="0.7087" stroke-linecap="round" stroke-linejoin="round" d="M335.183,6.171
			c-1.739-3.736-6.177-5.356-9.913-3.617c-0.918,0.369-2.212,1.406-2.771,2.221"/>
	</g>
</g>
<g id="BLOCK_x5F_RECORD_6_">
	<g id="LINE_460_">
		
			<line fill="none" stroke="#000000" stroke-width="0.7087" stroke-linecap="round" stroke-linejoin="round" x1="407.624" y1="39.452" x2="417.952" y2="32.219"/>
	</g>
	<g id="LINE_459_">
		
			<line fill="none" stroke="#000000" stroke-width="0.7087" stroke-linecap="round" stroke-linejoin="round" x1="401.491" y1="30.674" x2="389.877" y2="38.805"/>
	</g>
	<g id="LINE_456_">
		
			<line fill="none" stroke="#000000" stroke-width="0.7087" stroke-linecap="round" stroke-linejoin="round" x1="401.491" y1="30.674" x2="419.553" y2="7.145"/>
	</g>
	<g id="LINE_291_">
		
			<line fill="none" stroke="#000000" stroke-width="0.7087" stroke-linecap="round" stroke-linejoin="round" x1="447.875" y1="75.756" x2="428.998" y2="35.184"/>
	</g>
	<g id="LINE_290_">
		
			<line fill="none" stroke="#000000" stroke-width="0.7087" stroke-linecap="round" stroke-linejoin="round" x1="407.624" y1="39.452" x2="396.02" y2="47.577"/>
	</g>
	<g id="LINE_130_">
		
			<line fill="none" stroke="#000000" stroke-width="0.7087" stroke-linecap="round" stroke-linejoin="round" x1="389.877" y1="38.805" x2="396.02" y2="47.577"/>
	</g>
	<g id="LINE_129_">
		
			<line fill="none" stroke="#000000" stroke-width="0.7087" stroke-linecap="round" stroke-linejoin="round" x1="432.238" y1="8.542" x2="464.911" y2="78.76"/>
	</g>
	<g id="LINE_128_">
		
			<line fill="none" stroke="#000000" stroke-width="0.7087" stroke-linecap="round" stroke-linejoin="round" x1="447.875" y1="75.756" x2="464.911" y2="78.76"/>
	</g>
	<g id="ARC_12_">
		<path fill="none" stroke="#000000" stroke-width="0.7087" stroke-linecap="round" stroke-linejoin="round" d="M428.998,35.184
			c-1.739-3.736-6.177-5.355-9.913-3.617c-0.311,0.135-0.861,0.453-1.133,0.652"/>
	</g>
	<g id="ARC_11_">
		<path fill="none" stroke="#000000" stroke-width="0.7087" stroke-linecap="round" stroke-linejoin="round" d="M432.238,8.542
			c-1.739-3.736-6.177-5.356-9.913-3.617c-0.918,0.369-2.212,1.406-2.771,2.221"/>
	</g>
</g>
</svg>
